<svg viewBox="0 0 160 600" width="160" height="600" xmlns="http://www.w3.org/2000/svg" xmlns:xlink="http://www.w3.org/1999/xlink"><clipPath id="a"><path d="m0-136h728v90h-728z"/></clipPath><clipPath id="b"><path d="m0 0h160v600h-160z"/></clipPath><clipPath id="c"><path d="m214 0h300v600h-300z"/></clipPath><g clip-path="url(#a)" fill="#005499"><path d="m5.4 12.8a4.61 4.61 0 0 0 4.7-4.6 4.53 4.53 0 0 0 -4.7-4.5 4.61 4.61 0 0 0 -4.7 4.6 4.59 4.59 0 0 0 4.7 4.5zm0-8.4a4 4 0 0 1 4 3.9 3.93 3.93 0 0 1 -4 3.9 4 4 0 0 1 -4-3.9 3.93 3.93 0 0 1 4-3.9z"/><path d="m2.9 33.2c.1 0 .2 0 .2-.1a.45.45 0 0 0 0-.5l-4.6-4a.45.45 0 0 0 -.5 0c0 .2 0 .4.2.5l4.6 4z"/><path d="m80.1 7.7c.1 0 .2 0 .2-.1l4.6-4a.45.45 0 0 0 0-.5.45.45 0 0 0 -.5 0l-4.6 4a.45.45 0 0 0 0 .5c.2 0 .2.1.3.1z"/><path d="m34.1 32.7c.1 0 .2-.1.3-.2s1.8-3 4.4-2.3l.4.1c2.8.7 5.2 1.4 7.3-.9a.35.35 0 0 0 -.5-.5c-1.8 2-4 1.5-6.7.8l-.4-.1c-3.1-.8-5.1 2.4-5.2 2.6s0 .4.1.4a.37.37 0 0 0 .3.1z"/><circle cx="18.7" cy="27.1" r=".9"/><circle cx="69.5" cy="29.3" r="1.3"/><circle cx="32.7" cy="5.4" r="1.3"/><path d="m60.1 13 8.6-2.2a.22.22 0 0 0 .2-.2.37.37 0 0 0 -.1-.3l-7.2-6.5a.37.37 0 0 0 -.3-.1c-.1 0-.2.1-.2.3l-1.4 8.7a.37.37 0 0 0 .1.3zm7.9-2.6-7.5 1.9 1.2-7.6z"/><path d="m96.1 32.9a4.6 4.6 0 1 0 -4.7-4.6 4.67 4.67 0 0 0 4.7 4.6zm0-8.4a3.9 3.9 0 1 1 -4 3.9 4 4 0 0 1 4-3.9z"/><path d="m126 31.8c.1 0 .2 0 .2-.1a.45.45 0 0 0 0-.5l-5.5-4.8a.35.35 0 0 0 -.5.5l5.5 4.8a.77.77 0 0 0 .3.1z"/><circle cx="131.1" cy="7.6" r=".9"/><circle cx="147" cy="30.5" r=".9"/><circle cx="105.6" cy="14.5" r=".9"/><path d="m159.7 60.4a.27.27 0 0 0 .3-.3l.1-6a.3.3 0 1 0 -.6 0l-.1 6a.27.27 0 0 0 .3.3z"/><path d="m126.4 53h.2a.25.25 0 0 0 .1-.4c-.1-.1-2-3.4-5.2-2.6l-.4.1c-2.7.7-4.8 1.3-6.7-.8a.35.35 0 0 0 -.5.5c2.1 2.3 4.5 1.7 7.3.9l.4-.1c2.6-.7 4.4 2.2 4.4 2.3s.2.1.4.1z"/><circle cx="139.8" cy="45.4" r="1.9"/><circle cx="96.1" cy="55" r="1.3"/><path d="m64.3 53.2a4.6 4.6 0 1 0 -4.7-4.6 4.61 4.61 0 0 0 4.7 4.6zm0-8.5a4 4 0 0 1 4 3.9 3.93 3.93 0 0 1 -4 3.9 3.9 3.9 0 1 1 0-7.8z"/><path d="m34.4 52.1c.1 0 .2 0 .2-.1l5.5-4.8a.35.35 0 0 0 -.5-.5l-5.5 4.8a.45.45 0 0 0 0 .5c.1 0 .2.1.3.1z"/><ellipse cx="11.1" cy="51.5" rx="2.3" ry="2.2"/><circle cx="77.7" cy="44.4" r=".9"/><path d="m46 75.3h.2a.25.25 0 0 0 .1-.4l-3.1-5.2c-.1-.2-.3-.2-.5-.1a.25.25 0 0 0 -.1.4l3.1 5.2a.37.37 0 0 0 .3.1z"/><path d="m71 71.4c.1 0 .2-.1.3-.1l2.3-3.3a.3.3 0 0 0 0-.4l-2.6-3.2c-.1-.1-.2-.2-.4-.1l-3.9 1.4c-.1 0-.2.2-.2.3l.1 4c0 .1.1.3.2.3zm1.8-3.6-2 2.9-3.5-1-.1-3.5 3.4-1.2z"/><circle cx="20.5" cy="66.8" r=".9"/><path d="m124.9 68.8c.1 0 .2 0 .2-.1l4.6-4a.35.35 0 0 0 -.5-.5l-4.6 4a.45.45 0 0 0 0 .5c.2.1.2.1.3.1z"/><path d="m93.2 79.3h.1l9.2-3.2c.1 0 .1-.1.2-.2a.14.14 0 0 0 0-.2l-3.3-9c-.1-.2-.3-.3-.4-.2l-9.2 3.2c-.1 0-.1.1-.2.2a.14.14 0 0 0 0 .2l3.3 9c0 .1.1.2.3.2zm8.7-3.8-8.6 3-3.1-8.4 8.6-3z"/><circle cx="145.2" cy="70.3" r=".9"/><path d="m112.5 1.7h.1c.1 0 .2-.1.2-.3l1.2-7.3a.37.37 0 0 0 -.1-.3.37.37 0 0 0 -.3-.1l-7.2 1.8a.22.22 0 0 0 -.2.2.37.37 0 0 0 .1.3l6 5.4c.1.3.2.3.2.3zm.8-7.2-1 6.2-5.1-4.6z"/></g><path d="m0 0h160v600h-160z" fill="#0566c6"/><g clip-path="url(#b)" fill="#005499"><path d="m104.3 530.6a.52.52 0 0 0 .2.4.61.61 0 0 0 .8 0l7.1-8.1a.57.57 0 0 0 -.8-.8l-7.1 8.1a.52.52 0 0 0 -.2.4z"/><path d="m146.8 537.6a.55.55 0 0 0 .3.5c1.2.7 1.8 2.8 2.4 5.1a26.38 26.38 0 0 0 2.9 7.4c2.5 3.7 6.5 1.6 9.7-.2a11.7 11.7 0 0 1 3.6-1.6 1.61 1.61 0 0 1 .9.3c1.4 1.3 1.6 5.8 1.6 7.5a.58.58 0 0 0 .6.6.65.65 0 0 0 .6-.6c0-.7 0-6.4-2-8.3a2 2 0 0 0 -1.8-.6 12.84 12.84 0 0 0 -4 1.7c-3.7 2-6.5 3.2-8.2.6a22.81 22.81 0 0 1 -2.8-7c-.7-2.6-1.3-4.8-2.9-5.8a.54.54 0 0 0 -.8.2.35.35 0 0 0 -.1.2z"/><path d="m59.7 612.5a.37.37 0 0 0 .1.3.54.54 0 0 0 .8.2c.1 0 6-3.6 4.6-9.2l-.2-.7c-1.2-4.8-2.2-8.6 1.3-11.8a.57.57 0 1 0 -.8-.8c-4.1 3.7-3 8-1.7 13l.2.7c1.2 4.7-4 7.8-4 7.9-.2 0-.3.2-.3.4z"/><circle cx="135.7" cy="566.2" r="1.6"/><ellipse cx="66" cy="549.5" rx="2.3" ry="2.4"/><path d="m94.8 566.2c0 .1.1.3.1.4a.76.76 0 0 0 .5.2l15.4-2.4a.62.62 0 0 0 .4-1l-11.5-12.8c-.1-.2-.4-.2-.6-.2a.43.43 0 0 0 -.4.4l-3.9 15.2zm14.8-2.8-13.5 2.1 3.4-13.3z"/><path d="m59.4 502.2a8.1 8.1 0 1 0 8.1-8.3 8.17 8.17 0 0 0 -8.1 8.3zm15 0a7 7 0 1 1 -7-7.1 6.92 6.92 0 0 1 7 7.1z"/><path d="m101.1 312.2a5 5 0 0 0 4.8 5 4.91 4.91 0 0 0 4.8-5 4.8 4.8 0 1 0 -9.6 0zm8.6 0a3.7 3.7 0 1 1 -3.7-3.8 3.85 3.85 0 0 1 3.7 3.8z"/><path d="m61.4 449a.6.6 0 0 0 .1.4l8.5 9.7a.57.57 0 1 0 .8-.8l-8.5-9.7a.52.52 0 0 0 -.8 0c0 .1-.1.2-.1.4z"/><path d="m68.4 371.7a.37.37 0 0 0 .1.3.54.54 0 0 0 .8.2l9.2-5.5a.58.58 0 0 0 -.6-1l-9.2 5.5a.55.55 0 0 0 -.3.5z"/><path d="m59 324.8a.76.76 0 0 0 .2.4l4.9 5.3a.59.59 0 0 0 .7.1l6.5-3.1c.2-.1.4-.4.3-.6l-.9-7.3a.47.47 0 0 0 -.5-.5l-7-1.4a.71.71 0 0 0 -.6.3l-3.5 6.4a.76.76 0 0 0 -.1.4zm5.6 4.7-4.3-4.7 3.1-5.7 6.2 1.2.8 6.4z"/><path d="m143.5 385.6a.55.55 0 0 0 .3.5l6.4 3.3a.62.62 0 0 0 .7-.1l5-5.2a.62.62 0 0 0 .1-.7l-3.2-6.5c-.1-.2-.4-.4-.6-.3l-7 1.1c-.2 0-.4.2-.5.5zm6.8 2.6-5.6-2.9 1-6.4 6.2-1 2.9 5.8z"/><path d="m137.3 425.9v.1c.4 1.8 2.3 3.1 4.5 4.6a23.12 23.12 0 0 1 5.7 4.8c2 2.5 0 4.9-3 7.9a15.57 15.57 0 0 0 -2.8 3.4 2.12 2.12 0 0 0 0 1.9c1.2 2.5 6.6 4.2 7.2 4.4a.57.57 0 0 0 .3-1.1c-1.5-.5-5.7-2-6.5-3.8a.9.9 0 0 1 0-1 14.66 14.66 0 0 1 2.5-3.1c2.6-2.6 5.8-5.9 3.1-9.5a25.46 25.46 0 0 0 -6-5.1c-2-1.3-3.7-2.5-4-3.9a.57.57 0 0 0 -.7-.4c-.1.3-.3.5-.3.8z"/><path d="m129.2 331.4v.3a.65.65 0 0 0 .6.6c.3 0 .5-.3.6-.6 0-1.6.2-6.2 1.6-7.5a1.1 1.1 0 0 1 .9-.3 11.7 11.7 0 0 1 3.6 1.6c3.2 1.8 7.3 3.9 9.7.2a22.76 22.76 0 0 0 2.9-7.4c.7-2.4 1.2-4.4 2.4-5.1a.58.58 0 0 0 -.6-1c-1.6 1-2.2 3.2-2.9 5.8a21.86 21.86 0 0 1 -2.8 7c-1.8 2.7-4.5 1.4-8.2-.6a12.84 12.84 0 0 0 -4-1.7 2 2 0 0 0 -1.8.6c-1.9 1.7-2 6.7-2 8.1z"/><path d="m153.7 508.4a.76.76 0 0 0 .2.4c.3.4 8 8.7 17.7 7.8a.56.56 0 0 0 .5-.6.5.5 0 0 0 -.6-.5c-9.1.9-16.7-7.3-16.7-7.4a.52.52 0 0 0 -.8 0 .27.27 0 0 0 -.3.3z"/><circle cx="104.4" cy="440" r="1.6"/><circle cx="63.7" cy="411.7" r="1.6"/><circle cx="75" cy="526.1" r="1.6"/><ellipse cx="120.7" cy="508.4" rx="2.3" ry="2.4"/><ellipse cx="106" cy="376.7" rx="2.3" ry="2.4"/><path d="m114.9 473a.76.76 0 0 0 .2.4l9.7 10.7c.1.2.4.2.6.2a.43.43 0 0 0 .4-.4l3.2-12.8a.75.75 0 0 0 -.1-.5.76.76 0 0 0 -.5-.2l-12.9 2a.66.66 0 0 0 -.5.4c-.1 0-.1.1-.1.2zm10 9.5-8.2-9.1 11-1.7z"/><path d="m17.2 333.8a8.1 8.1 0 1 0 8.1-8.3 8.17 8.17 0 0 0 -8.1 8.3zm15 0a7 7 0 1 1 -7-7.1 7 7 0 0 1 7 7.1z"/><path d="m27.8 377.2a.6.6 0 0 0 .1.4l8.5 9.7a.57.57 0 0 0 .8-.8l-8.5-9.7a.52.52 0 0 0 -.8 0c0 .1-.1.3-.1.4z"/><path d="m20.1 469.7a.37.37 0 0 0 .1.3.54.54 0 0 0 .8.2l9.2-5.5a.58.58 0 0 0 -.6-1l-9.2 5.5a.55.55 0 0 0 -.3.5z"/><path d="m27.4 508.9.9 7.3a.47.47 0 0 0 .5.5l7 1.4a.71.71 0 0 0 .6-.3l3.5-6.4a.62.62 0 0 0 -.1-.7l-4.9-5.3a.59.59 0 0 0 -.7-.1l-6.5 3.1c-.2 0-.3.2-.3.5zm2 6.7-.8-6.4 5.7-2.7 4.3 4.7-3.1 5.7z"/><circle cx="35.2" cy="424.3" r="1.6"/><circle cx="17.7" cy="309.9" r="1.6"/><path d="m13.1 553.5v.2l5.7 16.3a.57.57 0 0 0 .7.4l15.9-5.8a.46.46 0 0 0 .3-.7l-5.7-16.3a.57.57 0 0 0 -.7-.4l-15.8 5.8a.51.51 0 0 0 -.4.5zm6.6 15.6-5.3-15.2 14.9-5.5 5.3 15.2z"/><path d="m95.1 186.7a8.1 8.1 0 1 0 8.1-8.3 8.17 8.17 0 0 0 -8.1 8.3zm15.1 0a7 7 0 1 1 -7-7.1 7 7 0 0 1 7 7.1z"/><path d="m59 191.2a.6.6 0 0 0 .1.4l7.1 8.1a.57.57 0 1 0 .8-.8l-7.1-8.1a.52.52 0 0 0 -.8 0 1 1 0 0 0 -.1.4z"/><path d="m104.3 53.9a.52.52 0 0 0 .2.4.61.61 0 0 0 .8 0l7.1-8.1a.57.57 0 1 0 -.8-.8l-7.1 8.1a.76.76 0 0 0 -.2.4z"/><path d="m142.6 132.1a.52.52 0 0 0 .2.4l5 5.2a.59.59 0 0 0 .7.1l6.4-3.3a.71.71 0 0 0 .3-.6l-1.1-7.2c0-.3-.2-.4-.5-.5l-7-1.1a.71.71 0 0 0 -.6.3l-3.2 6.5c-.2 0-.2.1-.2.2zm5.7 4.5-4.5-4.6 2.9-5.8 6.2 1 1 6.4z"/><path d="m148.9 200.9v.2a.57.57 0 0 0 .7.4c.6-.2 6-1.9 7.2-4.4a2.12 2.12 0 0 0 0-1.9 13.55 13.55 0 0 0 -2.8-3.4c-3-3-4.9-5.4-3-7.9a21.13 21.13 0 0 1 5.7-4.8c2.2-1.5 4.1-2.8 4.5-4.6a.57.57 0 1 0 -1.1-.3c-.3 1.4-2 2.5-4 3.9a23.3 23.3 0 0 0 -6 5.1c-2.8 3.5.5 6.8 3.1 9.5a10.57 10.57 0 0 1 2.5 3.1 1.7 1.7 0 0 1 0 1c-.8 1.8-4.9 3.3-6.5 3.8-.1-.2-.3 0-.3.3z"/><path d="m146.8 61a.55.55 0 0 0 .3.5c1.2.7 1.8 2.8 2.4 5.1a26.38 26.38 0 0 0 2.9 7.4c2.5 3.7 6.5 1.6 9.7-.2a11.7 11.7 0 0 1 3.6-1.6 1.61 1.61 0 0 1 .9.3c1.4 1.3 1.6 5.8 1.6 7.5a.58.58 0 0 0 .6.6.65.65 0 0 0 .6-.6c0-.7 0-6.4-2-8.3a2 2 0 0 0 -1.8-.6 12.84 12.84 0 0 0 -4 1.7c-3.7 2-6.5 3.2-8.2.6a22.81 22.81 0 0 1 -2.8-7c-.7-2.6-1.3-4.8-2.9-5.8a.54.54 0 0 0 -.8.2.35.35 0 0 0 -.1.2z"/><path d="m63 245.2v.2l5.7 16.3a.57.57 0 0 0 .7.4l15.9-5.8a.46.46 0 0 0 .3-.7l-5.7-16.3a.57.57 0 0 0 -.7-.4l-15.9 5.8a.85.85 0 0 0 -.3.5zm6.6 15.6-5.3-15.2 14.9-5.5 5.3 15.2z"/><path d="m126.5 264.3a.56.56 0 0 0 .5.6c9.7.9 17.4-7.4 17.7-7.8a.57.57 0 0 0 -.8-.8c-.1.1-7.6 8.3-16.7 7.4a.86.86 0 0 0 -.7.6z"/><path d="m59.7 135.8a.37.37 0 0 0 .1.3.54.54 0 0 0 .8.2c.1 0 6-3.6 4.6-9.2l-.2-.7c-1.2-4.8-2.2-8.6 1.3-11.8a.57.57 0 1 0 -.8-.8c-4.1 3.7-3 8-1.7 13l.2.7c1.2 4.7-4 7.8-4 7.9-.2 0-.3.2-.3.4z"/><path d="m99.6 265.2a.55.55 0 0 0 .3.5c.1 0 5.3 3.2 4 7.9l-.2.7c-1.3 5-2.4 9.3 1.7 13a.57.57 0 0 0 .8-.8c-3.6-3.3-2.6-7-1.3-11.8l.2-.7c1.4-5.5-4.3-9-4.6-9.2a.54.54 0 0 0 -.8.2.35.35 0 0 0 -.1.2z"/><circle cx="129" cy="230.4" r="1.6"/><circle cx="135.7" cy="89.6" r="1.6"/><circle cx="69.8" cy="163.2" r="1.6"/><ellipse cx="66" cy="72.8" rx="2.3" ry="2.4"/><ellipse cx="108.4" cy="138.2" rx="2.3" ry="2.4"/><path d="m94.8 89.6c0 .1.1.3.1.4a.76.76 0 0 0 .5.2l15.4-2.4a.62.62 0 0 0 .4-1l-11.6-12.9c-.1-.2-.4-.2-.6-.2s-.4.2-.4.4l-3.9 15.2c.1.2.1.2.1.3zm14.8-2.9-13.5 2.1 3.4-13.3z"/><path d="m59.4 25.5a8.1 8.1 0 1 0 8.1-8.3 8.17 8.17 0 0 0 -8.1 8.3zm15 0a7 7 0 1 1 -7-7.1 7 7 0 0 1 7 7.1z"/><path d="m153.7 31.7a.76.76 0 0 0 .2.4c.3.4 8 8.7 17.7 7.8a.56.56 0 0 0 .5-.6.5.5 0 0 0 -.6-.5c-9.1.9-16.7-7.3-16.7-7.4a.52.52 0 0 0 -.8 0 .32.32 0 0 0 -.3.3z"/><circle cx="75" cy="49.4" r="1.6"/><ellipse cx="120.7" cy="31.7" rx="2.3" ry="2.4"/><path d="m114.9-3.7a.76.76 0 0 0 .2.4l9.7 10.7c.1.2.4.2.6.2a.43.43 0 0 0 .4-.4l3.2-12.8a.75.75 0 0 0 -.1-.5.76.76 0 0 0 -.5-.2l-12.9 2a.66.66 0 0 0 -.5.4c-.1.1-.1.1-.1.2zm10 9.6-8.2-9.1 11-1.7z"/><path d="m27.4 32.2.9 7.3a.47.47 0 0 0 .5.5l7 1.4a.71.71 0 0 0 .6-.3l3.5-6.4a.62.62 0 0 0 -.1-.7l-4.9-5.3a.59.59 0 0 0 -.7-.1l-6.5 3.1a.55.55 0 0 0 -.3.5zm2 6.8-.8-6.4 5.7-2.7 4.3 4.7-3.1 5.7z"/><path d="m-12.4 145.9a8.17 8.17 0 0 0 8.1 8.3 8.17 8.17 0 0 0 8.1-8.3 8.17 8.17 0 0 0 -8.1-8.3 8.17 8.17 0 0 0 -8.1 8.3zm15 0a7 7 0 0 1 -7 7.1 7.11 7.11 0 0 1 -7-7.1 7 7 0 0 1 7-7.1 6.92 6.92 0 0 1 7 7.1z"/><path d="m31.6 133.3a.6.6 0 0 0 .1.4l7.1 8.1a.57.57 0 1 0 .8-.8l-7.1-8.1a.52.52 0 0 0 -.8 0c0 .1-.1.3-.1.4z"/><path d="m13.1 76.9v.2l5.7 16.3a.57.57 0 0 0 .7.4l15.9-5.8a.46.46 0 0 0 .3-.7l-5.7-16.3a.57.57 0 0 0 -.7-.4l-15.9 5.8c-.2 0-.3.2-.3.5zm6.6 15.6-5.3-15.2 14.9-5.5 5.2 15.2z"/><path d="m32.4 218.4a.6.6 0 0 0 .1.4.52.52 0 0 0 .8 0c4.1-3.7 3-8 1.7-13l-.2-.7c-1.2-4.7 4-7.8 4-7.9a.58.58 0 1 0 -.6-1c-.1 0-6 3.6-4.6 9.2l.2.7c1.2 4.8 2.2 8.6-1.3 11.8a.75.75 0 0 0 -.1.5z"/><circle cx="29.1" cy="169.4" r="1.6"/><ellipse cx="32.9" cy="259.8" rx="2.3" ry="2.4"/><path d="m-12.4 245.5a.76.76 0 0 0 .2.4l11.5 12.8c.1.2.4.2.6.2a.43.43 0 0 0 .4-.4l3.9-15.2a.75.75 0 0 0 -.1-.5.76.76 0 0 0 -.5-.2l-15.4 2.4a.66.66 0 0 0 -.5.4c-.1-.1-.1 0-.1.1zm11.8 11.6-10.1-11.2 13.5-2.1z"/></g><g clip-path="url(#c)" fill="#005499"><path d="m158.3 612.5a.37.37 0 0 0 .1.3.54.54 0 0 0 .8.2c.2-.1 6-3.6 4.6-9.2l-.2-.7c-1.2-4.8-2.2-8.6 1.3-11.8a.57.57 0 0 0 -.8-.8c-4.1 3.7-3 8-1.7 13l.2.7c1.2 4.7-4 7.8-4 7.9-.2 0-.3.2-.3.4z"/><ellipse cx="154.7" cy="558.8" rx="2.3" ry="2.4"/><path d="m157.9 502.2a8.1 8.1 0 1 0 8.1-8.3 8.17 8.17 0 0 0 -8.1 8.3zm15.1 0a7 7 0 1 1 -7-7.1 7 7 0 0 1 7 7.1z"/><path d="m156.4 363.8a.82.82 0 0 0 .4.6l10.1 3.4a.57.57 0 0 0 .3-1.1l-10.1-3.4a.57.57 0 0 0 -.7.4z"/><path d="m157.5 324.8a.76.76 0 0 0 .2.4l4.9 5.3a.59.59 0 0 0 .7.1l6.5-3.1c.2-.1.4-.4.3-.6l-.9-7.3a.47.47 0 0 0 -.5-.5l-7-1.4a.71.71 0 0 0 -.6.3l-3.5 6.4c0 .2-.1.3-.1.4zm5.6 4.7-4.3-4.7 3.1-5.7 6.2 1.2.8 6.4z"/><ellipse cx="160.9" cy="407.6" rx="3.9" ry="4"/><path d="m125.6 320.2a8.1 8.1 0 1 0 8.1-8.3 8.3 8.3 0 0 0 -8.1 8.3zm15.1 0a7 7 0 1 1 -7-7.1 7 7 0 0 1 7 7.1z"/><path d="m126.3 377.2a.6.6 0 0 0 .1.4l8.5 9.7a.57.57 0 0 0 .8-.8l-8.5-9.7a.52.52 0 0 0 -.8 0c0 .1-.1.3-.1.4z"/><path d="m118.6 469.7a.37.37 0 0 0 .1.3.54.54 0 0 0 .8.2l9.2-5.5a.58.58 0 1 0 -.6-1l-9.2 5.5a.55.55 0 0 0 -.3.5z"/><path d="m125.6 514a.55.55 0 0 0 .3.5l5.9 4.1a.85.85 0 0 0 .7 0l5.6-4.5a.62.62 0 0 0 .2-.7l-2.4-6.9a.68.68 0 0 0 -.6-.4l-7.1.3c-.2 0-.5.2-.5.4l-2 7a.31.31 0 0 0 -.1.2zm6.4 3.4-5.2-3.6 1.7-6.2 6.3-.2 2.2 6.1z"/><circle cx="133.7" cy="424.3" r="1.6"/><path d="m111.6 553.5v.2l5.7 16.3c.1.1.2.3.3.3a.3.3 0 0 0 .4 0l15.9-5.8a.46.46 0 0 0 .3-.7l-5.7-16.3c-.1-.1-.2-.3-.3-.3a.3.3 0 0 0 -.4 0l-15.8 5.8a.66.66 0 0 0 -.4.5zm6.6 15.6-5.3-15.2 14.9-5.5 5.3 15.2z"/><path d="m145.1 195.1a.65.65 0 0 0 .6.6l10.7.1a.6.6 0 1 0 0-1.2l-10.7-.1a.65.65 0 0 0 -.6.6z"/><path d="m158.5 228.3v.2l5.7 16.3a.57.57 0 0 0 .7.4l15.9-5.8a.52.52 0 0 0 .3-.7l-5.7-16.3a.57.57 0 0 0 -.7-.4l-15.9 5.8c-.1 0-.3.2-.3.5zm6.6 15.6-5.3-15.2 14.9-5.5 5.3 15.2z"/><path d="m158.3 135.8a.37.37 0 0 0 .1.3.54.54 0 0 0 .8.2c.2-.1 6-3.6 4.6-9.2l-.2-.7c-1.2-4.8-2.2-8.6 1.3-11.8a.57.57 0 1 0 -.8-.8c-4.1 3.7-3 8-1.7 13l.2.7c1.2 4.7-4 7.8-4 7.9-.2 0-.3.2-.3.4z"/><ellipse cx="154.7" cy="82.1" rx="2.3" ry="2.4"/><path d="m157.9 25.5a8.1 8.1 0 1 0 8.1-8.3 8.17 8.17 0 0 0 -8.1 8.3zm15.1 0a7 7 0 1 1 -7-7.1 7 7 0 0 1 7 7.1z"/><path d="m125.6 37.3a.55.55 0 0 0 .3.5l5.9 4.1a.85.85 0 0 0 .7 0l5.6-4.5a.62.62 0 0 0 .2-.7l-2.4-6.9a.68.68 0 0 0 -.6-.4l-7.1.3c-.2 0-.5.2-.5.4l-2 7a.31.31 0 0 0 -.1.2zm6.4 3.4-5.2-3.6 1.7-6.2 6.3-.2 2.2 6.1z"/><path d="m130.1 133.3a.6.6 0 0 0 .1.4l7.1 8.1a.57.57 0 0 0 .8-.8l-7.1-8.1a.52.52 0 0 0 -.8 0c0 .1-.1.3-.1.4z"/><path d="m111.6 76.9v.2l5.7 16.3c.1.1.2.3.3.3a.3.3 0 0 0 .4 0l15.9-5.8a.46.46 0 0 0 .3-.7l-5.7-16.3c-.1-.1-.2-.3-.3-.3a.3.3 0 0 0 -.4 0l-15.8 5.7a.68.68 0 0 0 -.4.6zm6.6 15.6-5.3-15.2 14.9-5.5 5.3 15.2z"/><path d="m128.4 258.3a.6.6 0 0 0 .1.4.52.52 0 0 0 .8 0c4.1-3.7 3-8 1.7-13l-.2-.7c-1.2-4.7 4-7.8 4-7.9a.58.58 0 0 0 -.6-1c-.1 0-6 3.6-4.6 9.2l.2.7c1.2 4.8 2.2 8.6-1.3 11.8a4.33 4.33 0 0 1 -.1.5z"/><circle cx="127.6" cy="169.4" r="1.6"/><ellipse cx="160.5" cy="263.5" rx="2.3" ry="2.4"/></g><path d="m0 0h160v99.3l-160 34.6z" fill="#00aeef"/><path d="m45.5 124.1 114.5 16.7v-41.5z" fill="#008bea"/><path d="m36.93 183.28a5.2 5.2 0 0 1 -2.09 4.49 9.85 9.85 0 0 1 -5.84 1.53h-7v-20.85h7.1a8.49 8.49 0 0 1 5.31 1.41 4.77 4.77 0 0 1 1.8 4 4.54 4.54 0 0 1 -3 4.41 4.87 4.87 0 0 1 3.72 5.01zm-5.38-8.85c0-1.51-.95-2.26-2.84-2.26h-1.84v4.71h1.72a3.32 3.32 0 0 0 2.2-.65 2.28 2.28 0 0 0 .76-1.8zm.51 8.5c0-1.81-1.11-2.72-3.35-2.72h-1.84v5.37h1.9a3.87 3.87 0 0 0 2.44-.67 2.37 2.37 0 0 0 .85-1.98z" fill="#fff"/><path d="m57.1 181a10.21 10.21 0 0 1 -.66 3.79 7.06 7.06 0 0 1 -1.85 2.71 8 8 0 0 1 -2.77 1.58 10.86 10.86 0 0 1 -3.51.54 8.89 8.89 0 0 1 -6.31-2.16c-1.56-1.45-2.34-3.58-2.34-6.41v-12.6h5.19v12.55a4.83 4.83 0 0 0 .91 3.15 3.17 3.17 0 0 0 2.63 1.12 3.25 3.25 0 0 0 2.61-1.07 4.85 4.85 0 0 0 .89-3.12v-12.63h5.21z" fill="#fff"/><path d="m59.17 189.3 7.49-20.94h5.69l7.24 20.31-5.22.84-1.55-4.51h-7.19l-1.39 4.32zm10.06-15.63-2.36 7.26h4.68z" fill="#fff"/><path d="m98 172.83h-6.18v16.47h-5.19v-16.47h-5.9v-4.38h16.49z" fill="#fff"/><path d="m49.44 204.75-5.68 20.88h-5.23l-3.59-13.47-3.6 13.47h-5.19l-5.51-20.21 5.59-.88 3.15 13.27 3.38-13.06h5.24l3.39 13.06 2.95-13.06z" fill="#fff"/><path d="m65.14 225.6h-13.26v-20.85h13v4.18h-7.88v3.92h6l.67 4.13h-6.67v4.42h8.18z" fill="#fff"/><path d="m83 219.58a5.18 5.18 0 0 1 -2.1 4.49 9.82 9.82 0 0 1 -5.88 1.53h-7v-20.85h7.09a8.52 8.52 0 0 1 5.32 1.41 4.77 4.77 0 0 1 1.8 4 4.54 4.54 0 0 1 -3 4.41 4.87 4.87 0 0 1 3.77 5.01zm-5.39-8.85c0-1.51-.94-2.26-2.83-2.26h-1.78v4.71h1.73a3.27 3.27 0 0 0 2.19-.65 2.25 2.25 0 0 0 .72-1.8zm.52 8.5q0-2.72-3.35-2.72h-1.78v5.37h1.91a3.84 3.84 0 0 0 2.43-.67 2.37 2.37 0 0 0 .82-1.98z" fill="#fff"/><path d="m39.48 247.1a13 13 0 0 1 0 8.49 9.37 9.37 0 0 1 -2.08 3.3 9.13 9.13 0 0 1 -3.4 2.11 13.42 13.42 0 0 1 -4.67.76h-7.33v-20.76h7.19a14.13 14.13 0 0 1 4.77.75 9.22 9.22 0 0 1 3.47 2.13 8.84 8.84 0 0 1 2.05 3.22zm-4.48 4.27a6.5 6.5 0 0 0 -1.62-4.8 5.91 5.91 0 0 0 -4.38-1.57h-1.87v12.83h1.87a5.94 5.94 0 0 0 4.42-1.58 6.6 6.6 0 0 0 1.58-4.88z" fill="#fff"/><path d="m56.53 261.8h-13.27v-20.8h13v4.18h-7.92v3.92h6l.66 4.13h-6.66v4.42h8.19z" fill="#fff"/><path d="m77 261.8h-4.52l-8.22-12.48v12.48h-4.81v-20.8h5l7.67 11.66v-11.66h4.88z" fill="#fff"/><path d="m97.87 260a13.67 13.67 0 0 1 -7.61 2.21 10.9 10.9 0 0 1 -5.59-1.37 8.66 8.66 0 0 1 -3.51-3.78 12.84 12.84 0 0 1 -1.16-5.66 12.24 12.24 0 0 1 1.25-5.67 9.07 9.07 0 0 1 3.6-3.81 10.89 10.89 0 0 1 5.54-1.37 12.87 12.87 0 0 1 6.37 1.55l-.69 4.5a10.24 10.24 0 0 0 -5.55-1.78 4.73 4.73 0 0 0 -4 1.77 7.63 7.63 0 0 0 -1.37 4.78 7.77 7.77 0 0 0 1.4 4.86 4.74 4.74 0 0 0 4 1.82 6.08 6.08 0 0 0 2.8-.66v-3.72h-3.61l-.6-3.84h8.73z" fill="#fff"/><path d="m99.83 261.8 7.5-20.94h5.67l7.25 20.31-5.25.83-1.55-4.53h-7.15l-1.39 4.32zm10.07-15.63-2.36 7.26h4.67z" fill="#fff"/><path d="m140 261.8h-4.47l-8.22-12.48v12.48h-4.81v-20.8h5l7.67 11.66v-11.66h4.83z" fill="#fff"/><path d="m160 600h-160v-172.9a1.58 1.58 0 0 1 1.6-1.6 1.53 1.53 0 0 1 1.6 1.3 6.81 6.81 0 0 0 13.4 0 1.53 1.53 0 0 1 1.6-1.3h6.3a1.53 1.53 0 0 1 1.6 1.3 6.81 6.81 0 0 0 13.4 0 1.53 1.53 0 0 1 1.6-1.3h6.3a1.53 1.53 0 0 1 1.6 1.3 6.81 6.81 0 0 0 13.4 0 1.53 1.53 0 0 1 1.6-1.3h6.3a1.53 1.53 0 0 1 1.6 1.3 6.81 6.81 0 0 0 13.4 0 1.53 1.53 0 0 1 1.6-1.3h6.3a1.53 1.53 0 0 1 1.6 1.3 6.81 6.81 0 0 0 13.4 0 1.53 1.53 0 0 1 1.6-1.3h6.3a1.53 1.53 0 0 1 1.6 1.3 6.81 6.81 0 0 0 13.4 0 1.53 1.53 0 0 1 1.6-1.3h6.3a1.53 1.53 0 0 1 1.6 1.3 6.81 6.81 0 0 0 13.4 0 1.53 1.53 0 0 1 1.6-1.3h2.7a1.58 1.58 0 0 1 1.6 1.6v172.9z" fill="#fff"/><path d="m45.87 497.84a9.17 9.17 0 0 1 2 6.17 11 11 0 0 1 -2 6.61 12.15 12.15 0 0 1 -5.44 4.14 20.86 20.86 0 0 1 -7.85 1.38 26.67 26.67 0 0 1 -13.33-3.2l1.26-7.79a23 23 0 0 0 11.16 3 8.09 8.09 0 0 0 4.74-1.22 4 4 0 0 0 1.71-3.47 4.39 4.39 0 0 0 -1.88-3.85q-1.87-1.31-6-1.3h-3.4l-1.2-7.44h4.31a9.92 9.92 0 0 0 5.56-1.25 4 4 0 0 0 1.82-3.47 3.61 3.61 0 0 0 -1.48-3.06 7.27 7.27 0 0 0 -4.35-1.1 17.86 17.86 0 0 0 -10.37 3.37l-1.26-7.62a22.8 22.8 0 0 1 13.13-3.74q6.69 0 10.46 2.93a10.16 10.16 0 0 1 1.9 13.8 12 12 0 0 1 -5.27 3.54 12.47 12.47 0 0 1 5.78 3.57z" fill="#008bea"/><path d="m81.42 479.54q4.58 5.52 4.58 15.54t-4.55 15.54a15.08 15.08 0 0 1 -12.26 5.52 15.19 15.19 0 0 1 -12.32-5.52q-4.58-5.53-4.58-15.54t4.58-15.54a15.2 15.2 0 0 1 12.29-5.54 15.09 15.09 0 0 1 12.26 5.54zm-5.35 15.54q0-13.45-6.91-13.45a5.55 5.55 0 0 0 -5.16 3.44c-1.16 2.3-1.73 5.63-1.73 10s.57 7.7 1.73 10a5.55 5.55 0 0 0 5.21 3.44q6.86.01 6.86-13.43z" fill="#008bea"/><path d="m110.49 486.2q0 5.63-2.84 8.8a9.78 9.78 0 0 1 -14.41 0c-1.9-2.1-2.84-5-2.84-8.77s.95-6.66 2.85-8.77a9.76 9.76 0 0 1 14.4 0q2.84 3.18 2.84 8.74zm-6.3 0a10.88 10.88 0 0 0 -1-5.05 3 3 0 0 0 -2.77-1.8q-3.84 0-3.84 6.91a10.54 10.54 0 0 0 1 5 3.09 3.09 0 0 0 2.84 1.81 3 3 0 0 0 2.78-1.78 11.12 11.12 0 0 0 .99-5.09zm.41 29.56-5.33-1.26 13.07-20 12.86-20.15 5.38 1.2-13.15 20.09zm34.86-11.87q0 5.57-2.87 8.75a9.82 9.82 0 0 1 -14.41 0c-1.88-2.09-2.81-5-2.81-8.73s.94-6.71 2.84-8.83a9.19 9.19 0 0 1 7.17-3.18 9.34 9.34 0 0 1 7.24 3.16q2.83 3.21 2.84 8.83zm-6.3 0a10.79 10.79 0 0 0 -1-5 3.11 3.11 0 0 0 -5.64 0 11.34 11.34 0 0 0 -.93 5.11 10.52 10.52 0 0 0 1 5 3.09 3.09 0 0 0 5.62 0 11.09 11.09 0 0 0 .95-5.11z" fill="#008bea"/><g fill="#009eed"><path d="m61.58 535.33a3 3 0 0 1 -.47 1.73 2.8 2.8 0 0 1 -1.26 1.07 4.56 4.56 0 0 1 -1.83.35 7.73 7.73 0 0 1 -3.34-.74l.3-1.86a6.05 6.05 0 0 0 3.07.94 1.85 1.85 0 0 0 1.15-.33 1.15 1.15 0 0 0 .43-1 1.2 1.2 0 0 0 -.37-.93 5.92 5.92 0 0 0 -1.54-.84 12.14 12.14 0 0 1 -1.32-.62 4 4 0 0 1 -.89-.66 2.12 2.12 0 0 1 -.52-.82 3.33 3.33 0 0 1 -.16-1.06 2.68 2.68 0 0 1 1-2.18 3.72 3.72 0 0 1 2.47-.8 5.93 5.93 0 0 1 2.8.66l-.31 1.84a4.5 4.5 0 0 0 -2.51-.83 1.63 1.63 0 0 0 -1.09.31 1 1 0 0 0 -.36.82 1.08 1.08 0 0 0 .35.84 5.92 5.92 0 0 0 1.46.78 6.88 6.88 0 0 1 2.33 1.38 2.73 2.73 0 0 1 .61 1.95z"/><path d="m69.63 538.36h-6.31v-10.61h6.16v1.72h-4.15v2.53h3.2l.28 1.71h-3.48v2.92h4.3z"/><path d="m77.19 538.36h-5.86v-10.61h2v8.79h3.54z"/><path d="m77.87 538.36 4-10.65h2.13l3.89 10.39-2 .36-1-2.79h-4l-.92 2.69zm5-8.45-1.48 4.09h2.89z"/><path d="m101.17 538.36h-2l-.57-7.82-2.66 7.85h-1.84l-2.67-7.85-.54 7.82h-1.83l.81-10.61h2.59l2.69 8 2.67-8h2.54z"/><path d="m102.31 538.36 4-10.65h2.17l3.88 10.39-2 .36-1-2.79h-4l-.92 2.69zm5-8.45-1.48 4.09h2.89z"/><path d="m122.37 538.36h-1.69l-5-7.31v7.31h-1.89v-10.61h1.93l4.76 7v-7h1.89z"/><path d="m133.34 527.75-3.83 6.55v4.06h-2v-4.05l-3.7-6.33 2.12-.33 2.67 4.77 2.58-4.67z"/><path d="m133.85 538.36 4-10.65h2.15l3.88 10.39-2 .36-1-2.79h-4l-.92 2.69zm5-8.45-1.48 4.09h2.89z"/><path d="m27.48 459.68a6 6 0 0 1 -.37 2.16 4.74 4.74 0 0 1 -1.11 1.68 4.54 4.54 0 0 1 -1.76 1.09 6.93 6.93 0 0 1 -2.39.39h-3.33v-10.61h3.37a7.12 7.12 0 0 1 2.43.39 4.54 4.54 0 0 1 1.75 1.09 4.61 4.61 0 0 1 1.05 1.66 6.14 6.14 0 0 1 .36 2.15zm-2.07 0a3.59 3.59 0 0 0 -.95-2.7 3.52 3.52 0 0 0 -2.59-.92h-1.32v7.26h1.29a3.6 3.6 0 0 0 2.64-.91 3.64 3.64 0 0 0 .93-2.72z"/><path d="m31.46 465h-2v-10.61h2z"/><path d="m40.22 462a3 3 0 0 1 -.47 1.73 2.8 2.8 0 0 1 -1.26 1.07 4.56 4.56 0 0 1 -1.83.35 7.59 7.59 0 0 1 -3.34-.74l.3-1.86a6.05 6.05 0 0 0 3.07.94 1.85 1.85 0 0 0 1.15-.33 1.15 1.15 0 0 0 .43-1 1.2 1.2 0 0 0 -.37-.93 6 6 0 0 0 -1.54-.83c-.54-.23-1-.44-1.33-.63a4 4 0 0 1 -.88-.66 2 2 0 0 1 -.52-.82 3.07 3.07 0 0 1 -.16-1.06 2.68 2.68 0 0 1 1-2.18 3.72 3.72 0 0 1 2.47-.8 5.93 5.93 0 0 1 2.8.66l-.31 1.84a4.5 4.5 0 0 0 -2.51-.83 1.63 1.63 0 0 0 -1.09.31 1 1 0 0 0 -.36.82 1.08 1.08 0 0 0 .35.84 6 6 0 0 0 1.45.78 6.84 6.84 0 0 1 2.34 1.38 2.73 2.73 0 0 1 .61 1.95z"/><path d="m50.46 464.72-2.25.39-4.21-5.28v5.17h-2v-10.61h2v4.66l3.83-4.66h2.44l-4.24 5z"/><path d="m59.82 455.7a6.54 6.54 0 0 1 0 8 4.63 4.63 0 0 1 -3.63 1.53 4.93 4.93 0 0 1 -2.62-.69 4.59 4.59 0 0 1 -1.74-1.93 7.1 7.1 0 0 1 0-5.76 4.6 4.6 0 0 1 1.76-1.94 4.94 4.94 0 0 1 2.63-.69 4.59 4.59 0 0 1 3.6 1.48zm-.71 4a4.52 4.52 0 0 0 -.78-2.78 2.74 2.74 0 0 0 -4.27 0 5.4 5.4 0 0 0 0 5.56 2.53 2.53 0 0 0 2.13 1 2.57 2.57 0 0 0 2.15-1 4.59 4.59 0 0 0 .77-2.79z"/><path d="m71.58 465h-1.69l-5-7.3v7.3h-1.89v-10.61h1.92l4.76 6.95v-6.95h1.9z"/><path d="m85.7 465h-2v-4.59h-4.55v4.59h-2v-10.61h2v4.2h4.51v-4.2h2z"/><path d="m96.14 455.7a6.56 6.56 0 0 1 0 8 4.63 4.63 0 0 1 -3.63 1.53 4.89 4.89 0 0 1 -2.61-.69 4.55 4.55 0 0 1 -1.75-1.93 6.58 6.58 0 0 1 -.61-2.87 6.5 6.5 0 0 1 .62-2.89 4.58 4.58 0 0 1 1.75-1.94 5 5 0 0 1 2.63-.69 4.61 4.61 0 0 1 3.6 1.48zm-.71 4a4.52 4.52 0 0 0 -.78-2.78 2.74 2.74 0 0 0 -4.27 0 5.34 5.34 0 0 0 0 5.56 2.72 2.72 0 0 0 4.27 0 4.53 4.53 0 0 0 .78-2.79z"/><path d="m105.77 462a3 3 0 0 1 -.47 1.73 2.8 2.8 0 0 1 -1.26 1.07 4.56 4.56 0 0 1 -1.83.35 7.59 7.59 0 0 1 -3.34-.74l.3-1.86a6.05 6.05 0 0 0 3.07.94 1.85 1.85 0 0 0 1.15-.33 1.15 1.15 0 0 0 .43-1 1.2 1.2 0 0 0 -.37-.93 6 6 0 0 0 -1.53-.83 13.29 13.29 0 0 1 -1.33-.63 4 4 0 0 1 -.89-.66 2.12 2.12 0 0 1 -.52-.82 3.33 3.33 0 0 1 -.16-1.06 2.68 2.68 0 0 1 1-2.18 3.72 3.72 0 0 1 2.47-.8 5.93 5.93 0 0 1 2.8.66l-.31 1.84a4.5 4.5 0 0 0 -2.51-.83 1.63 1.63 0 0 0 -1.09.31 1 1 0 0 0 -.36.82 1.08 1.08 0 0 0 .35.84 5.92 5.92 0 0 0 1.46.78 6.88 6.88 0 0 1 2.33 1.38 2.73 2.73 0 0 1 .61 1.95z"/><path d="m115.36 456.16h-3.3v8.84h-2v-8.84h-3.2v-1.77h8.25z"/><path d="m118.93 465h-2.05v-10.61h2.05z"/><path d="m129.81 465h-1.69l-5-7.3v7.3h-1.89v-10.61h1.92l4.76 6.95v-6.95h1.9z"/><path d="m140.57 464.12a6.75 6.75 0 0 1 -3.73 1.08 4.92 4.92 0 0 1 -3.84-1.49 6.5 6.5 0 0 1 0-8 4.89 4.89 0 0 1 3.79-1.51 6.11 6.11 0 0 1 3.21.8l-.29 1.89a4.91 4.91 0 0 0 -2.92-1 2.79 2.79 0 0 0 -2.32 1 4.33 4.33 0 0 0 -.8 2.75 4.27 4.27 0 0 0 .82 2.77 2.9 2.9 0 0 0 2.39 1 3.81 3.81 0 0 0 1.78-.43v-2.28h-2.14l-.25-1.64h4.26z"/></g><path d="m53.1 52.5a5.34 5.34 0 0 0 -.7-3 2.76 2.76 0 0 0 -1.3-1.1 7.12 7.12 0 0 0 -2.3-.3h-3a.1.1 0 0 0 -.1.1l-4.9 18.3v.1h2.1a9.08 9.08 0 0 0 5.2-1.2 7.24 7.24 0 0 0 2.3-2.8 20.4 20.4 0 0 0 1.8-5 21 21 0 0 0 .9-5.1zm-9.1 11.7 3.7-13.9h.3c1.3 0 2 .5 2.2 1.5s-.1 3-.8 5.8c-.7 2.6-1.4 4.4-2.2 5.3a4.13 4.13 0 0 1 -3.2 1.3z" fill="#fff"/><path d="m60.5 60.3a11.75 11.75 0 0 0 .5-2.9 4.12 4.12 0 0 0 -.2-2 2.26 2.26 0 0 0 -.9-1.2 3.87 3.87 0 0 0 -1.7-.4c-2.6 0-4.5 2.2-5.6 6.4-.7 2.7-.7 4.5.1 5.5a2.66 2.66 0 0 0 2.2.9c2.6 0 4.5-2.2 5.6-6.3zm-5 3.9c-.5 0-.7-.3-.8-.9a11.35 11.35 0 0 1 .6-3.3 11.61 11.61 0 0 1 1.2-3.3c.4-.6.8-.9 1.3-.9s.7.3.8.9a16.54 16.54 0 0 1 -.6 3.3 10.69 10.69 0 0 1 -1.2 3.2 1.44 1.44 0 0 1 -1.3 1z" fill="#fff"/><path d="m74.9 54.6a2.11 2.11 0 0 0 -1.9-.7 3.8 3.8 0 0 0 -3 1.6 1.78 1.78 0 0 0 -1.9-1.6 3.62 3.62 0 0 0 -2.7 1.4l.3-1.1v-.1h-2.4a.1.1 0 0 0 -.1.1l-3.2 12.2v.1h2.4a.1.1 0 0 0 .1-.1l2.2-8.1a5.07 5.07 0 0 1 .8-1.8 1.66 1.66 0 0 1 1.2-.5.75.75 0 0 1 .5.1l.3.3a1.63 1.63 0 0 1 0 .7 5.16 5.16 0 0 1 -.2 1.1l-2.2 8.1v.1h2.5a.1.1 0 0 0 .1-.1l2.2-8.1a3.78 3.78 0 0 1 .8-1.8 1.66 1.66 0 0 1 1.2-.5c.4 0 .7.1.7.4a4.44 4.44 0 0 1 -.2 1.8l-2.2 8.1v.1h2.4a.1.1 0 0 0 .1-.1l2.6-9.8a2.83 2.83 0 0 0 -.4-1.8z" fill="#fff"/><path d="m84.6 53.9h-2.3a.1.1 0 0 0 -.1.1l-.3 1a1.72 1.72 0 0 0 -1.8-1.3 3.3 3.3 0 0 0 -2.7 1.5 16.4 16.4 0 0 0 -2 4.7 12.48 12.48 0 0 0 -.6 5 1.79 1.79 0 0 0 1.9 1.7 2.3 2.3 0 0 0 1.4-.4 9 9 0 0 0 1.1-1l-.3 1.1v.1h2.4a.1.1 0 0 0 .1-.1zm-4 6.2a14.7 14.7 0 0 1 -1.2 3.3c-.4.6-.8.9-1.3.9s-.8-.3-.8-.9a15.43 15.43 0 0 1 .6-3.3 11.61 11.61 0 0 1 1.2-3.3c.4-.6.8-.9 1.3-.9s.7.3.7.9a9.62 9.62 0 0 1 -.5 3.3z" fill="#fff"/><path d="m88.2 54.1h-2.4a.1.1 0 0 0 -.1.1l-3.3 12.3v.1h2.4a.1.1 0 0 0 .1-.1z" fill="#fff"/><path d="m87.5 52.1a2.35 2.35 0 0 0 1.3-.5 2.1 2.1 0 0 0 .8-1.1 1.32 1.32 0 0 0 -.2-1.2 1.23 1.23 0 0 0 -1-.5 2.35 2.35 0 0 0 -1.3.5 2.1 2.1 0 0 0 -.8 1.1 1.23 1.23 0 0 0 .2 1.2c.2.4.5.5 1 .5z" fill="#fff"/><path d="m99.7 48.1h-2.6a.1.1 0 0 0 -.1.1l-1.8 6.8a30.05 30.05 0 0 0 -.7 3.2 20.69 20.69 0 0 1 -.4 2.2 38.55 38.55 0 0 0 -.2-4.9l-.5-7.3c0-.1 0-.1-.1-.1h-2.3a.1.1 0 0 0 -.1.1l-4.9 18.3v.1h2.5a.1.1 0 0 0 .1-.1l2-8c.1-.2.1-.4.2-.6s.1-.3.1-.5l.5-2.3.2-1.2v1.9a19.27 19.27 0 0 0 .1 2.4l.6 8.2c0 .1 0 .1.1.1h2.3a.1.1 0 0 0 .1-.1z" fill="#fff"/><path d="m104.6 62.1h-2.2a.1.1 0 0 0 -.1.1c-.4 1.5-1.1 2.3-2 2.3a.6.6 0 0 1 -.6-.3c-.4-.5-.3-1.7.2-3.5h5.1a.1.1 0 0 0 .1-.1l.1-.3c.7-2.8.7-4.8 0-5.8a2.21 2.21 0 0 0 -2-.8 4.07 4.07 0 0 0 -3.3 1.6 12.49 12.49 0 0 0 -2.2 4.9 11.86 11.86 0 0 0 -.5 2.8 4.12 4.12 0 0 0 .2 2 2.35 2.35 0 0 0 2.5 1.6c2.2 0 3.9-1.5 4.8-4.4 0-.1 0-.1-.1-.1zm-2-6.3a.66.66 0 0 1 .7.6 7.82 7.82 0 0 1 -.2 2.4h-2.7a9.18 9.18 0 0 1 1.1-2.4 1.38 1.38 0 0 1 1.1-.6z" fill="#fff"/><path d="m111.5 60.9a3 3 0 0 0 -.4-.8 6.47 6.47 0 0 0 -.8-.9c-.8-.8-1.1-1.4-1-2 0-.2.1-.3.2-.5a.78.78 0 0 1 .4-.4c.2-.1.3-.2.5-.3a1.27 1.27 0 0 1 .6-.1 2 2 0 0 1 1.5.6h.1a.1.1 0 0 0 .1-.1l.6-2.1v-.1a3.2 3.2 0 0 0 -1.9-.5 3.94 3.94 0 0 0 -2.7 1 4.73 4.73 0 0 0 -1.6 2.5 3.4 3.4 0 0 0 0 2 6.67 6.67 0 0 0 1.5 1.9 2.65 2.65 0 0 1 .5.6 1.38 1.38 0 0 0 .3.4 1.39 1.39 0 0 1 0 .9 1.75 1.75 0 0 1 -1.9 1.4 2.13 2.13 0 0 1 -1.6-.7h-.1a.1.1 0 0 0 -.1.1l-.6 2.2v.1a3.29 3.29 0 0 0 1.9.6 4.27 4.27 0 0 0 2.9-1 5.45 5.45 0 0 0 1.7-2.7 12.17 12.17 0 0 0 -.1-2.1z" fill="#fff"/><path d="m116.6 52.1a2.35 2.35 0 0 0 1.3-.5 2.1 2.1 0 0 0 .8-1.1 1.32 1.32 0 0 0 -.2-1.2 1.23 1.23 0 0 0 -1-.5 2.35 2.35 0 0 0 -1.3.5 2.1 2.1 0 0 0 -.8 1.1 1.23 1.23 0 0 0 .2 1.2 1 1 0 0 0 1 .5z" fill="#fff"/><path d="m117.4 54.1h-2.4a.1.1 0 0 0 -.1.1l-3.3 12.3v.1h2.4a.1.1 0 0 0 .1-.1z" fill="#fff"/><path d="m126.2 53.9h-2.3a.1.1 0 0 0 -.1.1l-.3 1.1a1.72 1.72 0 0 0 -1.8-1.3 3.3 3.3 0 0 0 -2.7 1.5 16.4 16.4 0 0 0 -2 4.7 12.48 12.48 0 0 0 -.6 5 1.79 1.79 0 0 0 1.9 1.7 2.3 2.3 0 0 0 1.4-.4 9 9 0 0 0 1.1-1l-.3 1.1v.1h2.4a.1.1 0 0 0 .1-.1zm-4 6.2a14.7 14.7 0 0 1 -1.2 3.3c-.4.6-.8.9-1.3.9s-.8-.3-.8-.9a15.43 15.43 0 0 1 .6-3.3 11.61 11.61 0 0 1 1.2-3.3c.4-.6.8-.9 1.3-.9s.7.3.7.9a9.62 9.62 0 0 1 -.5 3.3z" fill="#fff"/><path d="m37.2 50.7-12.8 6.1 12.8 9.8z" fill="#fff"/><path d="m45.2 41-6.8 3.3v22.3z" fill="#fff"/><path d="m143.8 362.7h-122.2a8.6 8.6 0 0 1 -8.6-8.6v-63.7a8.6 8.6 0 0 1 8.6-8.6h122.2a8.6 8.6 0 0 1 8.6 8.6v63.6a8.69 8.69 0 0 1 -8.6 8.7z" fill="#21409a"/><path d="m140.4 358.6h-122.3a8.6 8.6 0 0 1 -8.6-8.6v-62.5a8.6 8.6 0 0 1 8.6-8.6h122.3a8.6 8.6 0 0 1 8.6 8.6v62.5a8.66 8.66 0 0 1 -8.6 8.6z" fill="#ff675c"/><path d="m36.74 302.61a7.17 7.17 0 0 1 -.6 3 5.32 5.32 0 0 1 -1.66 2.12 7.62 7.62 0 0 1 -2.48 1.27 10.6 10.6 0 0 1 -3 .41 17.74 17.74 0 0 1 -7.52-1.62l.78-4.56a14.66 14.66 0 0 0 6.83 2 3.18 3.18 0 0 0 1.89-.51 1.65 1.65 0 0 0 .71-1.43 1.87 1.87 0 0 0 -.71-1.51 12 12 0 0 0 -2.94-1.44 24.2 24.2 0 0 1 -2.79-1.34 8.55 8.55 0 0 1 -1.89-1.34 4.35 4.35 0 0 1 -1.15-1.66 6.82 6.82 0 0 1 -.34-2.29 6 6 0 0 1 3.64-5.71 9.28 9.28 0 0 1 3.74-.72 15 15 0 0 1 3.48.36 15.31 15.31 0 0 1 3 1.09l-.83 4.5a11.23 11.23 0 0 0 -5.61-1.76 3 3 0 0 0 -1.79.46 1.48 1.48 0 0 0 -.62 1.24 1.63 1.63 0 0 0 .64 1.35 11.23 11.23 0 0 0 2.64 1.3 14.42 14.42 0 0 1 5.09 2.79 5.38 5.38 0 0 1 1.49 4z" fill="#fff"/><path d="m53.35 309.11h-13.71v-21.55h13.44v4.32h-8.19v4.05h6.25l.69 4.27h-6.94v4.56h8.46z" fill="#fff"/><path d="m74.74 308.46-5.84.87-7.19-10.24v10h-5.34v-21.53h5.34v9.21l6.65-9.21h6.19l-7.74 10.05z" fill="#fff"/><path d="m75.12 309.11 7.75-21.64h5.87l7.49 21-5.4.87-1.6-4.69h-7.43l-1.43 4.47zm10.4-16.11-2.44 7.5h4.84z" fill="#fff"/><path d="m111.29 309.11h-12.69v-21.55h5.33v16.93h6.63z" fill="#fff"/><path d="m119.3 309.11h-5.3v-21.55h5.34z" fill="#fff"/><path d="m40.74 346-5.85.87-7.18-10.24v10h-5.34v-21.57h5.34v9.21l6.65-9.21h6.19l-7.75 10.05z" fill="#fff"/><path d="m55.37 346.61h-12.7v-21.55h5.33v16.94h6.62z" fill="#fff"/><path d="m63.37 346.61h-5.37v-21.55h5.34z" fill="#fff"/><path d="m85.8 346-5.84.87-7.19-10.24v10h-5.34v-21.57h5.34v9.21l6.65-9.21h6.19l-7.74 10.05z" fill="#fff"/><path d="m143.4 371c-2-2.9-4-5.8-6.1-8.7a.52.52 0 0 1 -.2-.4c.2-.1.3-.1.5-.2l5.7-2.1a2.51 2.51 0 0 0 .7-.4c.8-.7.6-1.7-.4-2.4-7.9-4.9-15.8-9.9-23.7-14.8a2.12 2.12 0 0 0 -.7-.3c-1.1-.2-1.8.7-1.6 1.9 1.9 9.1 3.7 18.3 5.6 27.4a1.85 1.85 0 0 0 .2.7 1.35 1.35 0 0 0 2.3.1c1.4-1.6 2.7-3.2 4-4.7l.4-.4c.1.2.1.3.2.4 2 2.9 4 5.9 6.1 8.8a9 9 0 0 0 .9 1l.6.1a3.88 3.88 0 0 0 1.1-.6c1.3-.9 2.6-1.8 3.8-2.7a9 9 0 0 0 1-.9l.1-.6a2.37 2.37 0 0 0 -.5-1.2zm-5.2 2.6a1.44 1.44 0 0 0 -.2-.3c-2.2-3.2-4.4-6.3-6.6-9.5a1.4 1.4 0 0 0 -1.9-.6 2.65 2.65 0 0 0 -.6.5c-1.1 1.3-2.2 2.6-3.3 3.8a1.38 1.38 0 0 0 -.3.4c-1.5-7.3-2.9-14.5-4.4-21.9 6.3 4 12.6 7.9 18.9 11.8-.2.1-.4.1-.5.2-1.6.6-3.2 1.1-4.7 1.7a1.52 1.52 0 0 0 -.8 2.4c2.2 3.1 4.3 6.3 6.5 9.4.1.1.2.2.2.3a14.1 14.1 0 0 1 -2.3 1.8z" fill="#005499"/><g fill="#fff"><path d="m140.7 371.9c-.8.6-1.6 1.1-2.4 1.7a1.44 1.44 0 0 0 -.2-.3c-2.2-3.2-4.4-6.3-6.6-9.5a1.4 1.4 0 0 0 -1.9-.6 2.65 2.65 0 0 0 -.6.5c-1.1 1.3-2.2 2.6-3.3 3.8a1.38 1.38 0 0 0 -.3.4c-1.5-7.3-2.9-14.5-4.4-21.9 6.3 4 12.6 7.9 18.9 11.8-.2.1-.4.1-.5.2-1.6.6-3.2 1.1-4.7 1.7a1.52 1.52 0 0 0 -.8 2.4c2.2 3.1 4.3 6.3 6.5 9.4a1.38 1.38 0 0 0 .3.4z"/><path d="m118.8 338.2a1.79 1.79 0 0 1 -1.8-1.8v-9.4a1.8 1.8 0 0 1 3.6 0v9.4a1.93 1.93 0 0 1 -1.8 1.8z"/><path d="m125.8 341a1.76 1.76 0 0 1 .3-2.5l7.4-5.8a1.78 1.78 0 0 1 2.2 2.8l-7.4 5.8a1.76 1.76 0 0 1 -2.5-.3z"/><path d="m112.8 341a1.76 1.76 0 0 0 -.3-2.5l-7.4-5.8a1.78 1.78 0 1 0 -2.2 2.8l7.4 5.8a1.77 1.77 0 0 0 2.5-.3z"/><path d="m114 345.3a1.76 1.76 0 0 1 -.3 2.5l-7.4 5.8a1.78 1.78 0 1 1 -2.2-2.8l7.4-5.8a1.85 1.85 0 0 1 2.5.3z"/><path d="m130.5 271.8-.3 2.1a2.15 2.15 0 0 1 -1.6 1.9l-1.8.3c-.4.1-.4.7 0 .7l1.9.3a2 2 0 0 1 1.6 1.8l.3 2.1a.35.35 0 0 0 .7 0l.3-2.1a2.15 2.15 0 0 1 1.6-1.9l1.8-.3c.4-.1.4-.7 0-.7l-1.9-.3a2 2 0 0 1 -1.6-1.8l-.3-2.1c-.1-.4-.7-.4-.7 0z"/><path d="m150.3 290.2-.2 1.8a1.82 1.82 0 0 1 -1.4 1.6l-1.6.3a.38.38 0 0 0 0 .7l1.6.3a1.82 1.82 0 0 1 1.4 1.6l.2 1.9c0 .4.5.4.6 0l.2-1.8a1.82 1.82 0 0 1 1.4-1.6l1.6-.3a.38.38 0 0 0 0-.7l-1.7-.3a1.82 1.82 0 0 1 -1.4-1.6l-.2-1.9c.1-.4-.4-.4-.5 0z"/><path d="m8 346.1-.4 2.8a2.89 2.89 0 0 1 -2.2 2.5l-2.5.4a.52.52 0 0 0 0 1l2.5.4a2.89 2.89 0 0 1 2.2 2.4l.4 2.9a.45.45 0 1 0 .9 0l.4-2.8a2.89 2.89 0 0 1 2.2-2.5l2.5-.4a.52.52 0 0 0 0-1l-2.6-.4a2.67 2.67 0 0 1 -2.1-2.4l-.4-2.9a.45.45 0 0 0 -.9 0z"/><path d="m34.8 353.5-.3 2.5a2.56 2.56 0 0 1 -2 2.2l-2.2.4a.46.46 0 0 0 0 .9l2.2.4a2.36 2.36 0 0 1 1.9 2.2l.3 2.5a.4.4 0 0 0 .8 0l.3-2.5a2.56 2.56 0 0 1 2-2.2l2.2-.4a.46.46 0 0 0 0-.9l-2.3-.4a2.46 2.46 0 0 1 -1.9-2.1l-.3-2.5c0-.6-.7-.6-.7-.1z"/><circle cx="151.8" cy="118.2" r="1.2"/><circle cx="142" cy="118.2" r="1.2"/><circle cx="151.8" cy="159.7" r="1.2"/><circle cx="142" cy="159.7" r="1.2"/><circle cx="151.8" cy="109.9" r="1.2"/><circle cx="142" cy="109.9" r="1.2"/><circle cx="151.8" cy="151.4" r="1.2"/><circle cx="142" cy="151.4" r="1.2"/><circle cx="151.8" cy="101.5" r="1.2"/><circle cx="142" cy="101.5" r="1.2"/><circle cx="151.8" cy="143" r="1.2"/><circle cx="142" cy="143" r="1.2"/><circle cx="151.8" cy="93.2" r="1.2"/><circle cx="142" cy="93.2" r="1.2"/><circle cx="151.8" cy="134.7" r="1.2"/><circle cx="142" cy="134.7" r="1.2"/><circle cx="151.8" cy="84.8" r="1.2"/><circle cx="142" cy="84.8" r="1.2"/><circle cx="151.8" cy="126.3" r="1.2"/><circle cx="142" cy="126.3" r="1.2"/></g></svg>